<svg class="i8-icon-path" preserveAspectRatio="none" viewBox="0 0 16 16"><path d="M1.72656 1.02344L1.02344 1.72656L3.32422 4.03125C1.09766 5.26172 0.21875 7.18359 0.167969 7.30078L0.0820312 7.5L0.167969 7.69922C0.242188 7.875 2.10156 12 7.5 12C7.68359 12 7.84766 11.9766 8.02344 11.9688C8.02734 11.9688 8.03125 11.9688 8.03125 11.9688C9.05859 11.9102 9.95312 11.7188 10.7148 11.4219L13.2695 13.9805L13.9805 13.2695L11.6836 10.9766L11 10.293L10.9375 10.2344L8.85156 8.14062L6.85938 6.14844L5.41406 4.70703L5.07031 4.36328L4.28125 3.57812L1.72656 1.02344ZM7.5 3C6.94531 3 6.44141 3.05469 5.96094 3.13281L6.89062 4.0625C7.08984 4.02734 7.28906 4 7.5 4C9.42969 4 11 5.57031 11 7.5C11 7.71094 10.9727 7.91016 10.9375 8.10937L11.75 8.92187C11.8984 8.47266 12 8 12 7.5C12 6.51562 11.6719 5.60937 11.1328 4.86719C12.7422 5.73437 13.5508 7.00781 13.8164 7.5C13.6211 7.86328 13.1211 8.66016 12.2266 9.39844L12.9375 10.1094C14.2422 8.99609 14.793 7.79297 14.832 7.69922L14.9219 7.5L14.832 7.30078C14.7578 7.125 12.8984 3 7.5 3ZM3.86719 4.88281C3.32812 5.62109 3 6.51953 3 7.5C3 8.48437 3.32812 9.39062 3.86719 10.1289C2.25781 9.26562 1.44922 7.99219 1.18359 7.5C1.44922 7.00781 2.26562 5.75 3.86719 4.88281ZM4.71875 5.42187L6.15625 6.86719C6.06641 7.05859 6 7.26953 6 7.5C6 8.32812 6.67188 9 7.5 9C7.73047 9 7.94141 8.93359 8.13281 8.84375L9.57812 10.2812C8.99609 10.7227 8.28516 11 7.5 11C5.57031 11 4 9.42969 4 7.5C4 6.71484 4.27734 6.00391 4.71875 5.42187Z" style="height: 100%;"></path></svg>