<svg class="i8-icon-path" preserveAspectRatio="none" viewBox="0 0 16 16"><path d="M7.5 3C2.10547 3 0.046875 7.28906 0.046875 7.28906L-0.0546875 7.5L0.046875 7.71094C0.046875 7.71094 2.10547 12 7.5 12C12.8945 12 14.9531 7.71094 14.9531 7.71094L15.0508 7.5L14.9531 7.28906C14.9531 7.28906 12.8945 3 7.5 3ZM7.5 4C9.4375 4 11 5.5625 11 7.5C11 9.4375 9.4375 11 7.5 11C5.5625 11 4 9.4375 4 7.5C4 5.5625 5.5625 4 7.5 4ZM3.94141 4.77734C3.35938 5.53516 3 6.47266 3 7.5C3 8.52734 3.35938 9.46484 3.94141 10.2227C2.02344 9.26953 1.24219 7.75391 1.11719 7.5C1.24219 7.24609 2.02344 5.73047 3.94141 4.77734ZM11.0586 4.77734C12.9766 5.73047 13.7578 7.24609 13.8828 7.5C13.7578 7.75391 12.9766 9.26953 11.0586 10.2227C11.6406 9.46484 12 8.52734 12 7.5C12 6.47266 11.6406 5.53516 11.0586 4.77734ZM7.5 6C6.67188 6 6 6.67188 6 7.5C6 8.32812 6.67188 9 7.5 9C8.32812 9 9 8.32812 9 7.5C9 6.67188 8.32812 6 7.5 6Z" style="height: 100%;"></path></svg>