
<?xml version="1.0" encoding="UTF-8"?>
<svg id="SVGDoc" width="23" height="23" xmlns="http://www.w3.org/2000/svg" version="1.1" xmlns:xlink="http://www.w3.org/1999/xlink" xmlns:avocode="https://avocode.com/" viewBox="0 0 23 20"><defs></defs><desc></desc><g><g><title></title><path d="M19.9231,9.8373l-8.59131,8.55769l-8.57214,-8.57211c-0.94226,-0.94231 -1.46155,-2.19231 -1.46155,-3.52404c0,-1.29884 0.5144,-2.58173 1.45679,-3.51923c0.9375,-0.9375 2.1875,-1.45673 3.5144,-1.45673c1.33167,0 2.58655,0.51923 3.52881,1.46153l1.08655,1.08654c0.25476,0.25481 0.66345,0.25481 0.91821,0l1.07703,-1.07693c0.94226,-0.9423 2.19702,-1.46153 3.52405,-1.46153c1.3269,0 2.59607,0.51923 3.51917,1.45673c0.94226,0.9423 1.45679,2.21077 1.45679,3.52403c0.00476,1.33173 -0.51453,2.58173 -1.45679,3.52404zM20.84619,1.87096c-1.1875,-1.1875 -2.75964,-1.87096 -4.4375,-1.87096c-1.67786,0 -3.25476,0.68827 -4.40869,1.87577l-0.65381,0.62019l-0.62976,-0.62981c-1.1875,-1.1875 -2.76929,-1.86615 -4.44714,-1.86615c-1.6731,0 -3.26929,0.67385 -4.43274,1.85654c-1.1875,1.14346 -1.83655,2.76442 -1.83655,4.44231c0,1.70115 0.65869,3.25 1.84619,4.4375l9.02881,9.02884c0.125,0.125 0.29333,0.23481 0.45679,0.23481c0.16345,0 0.33167,-0.105 0.45667,-0.23l9.0481,-9.01442c1.16345,-1.1875 1.84131,-2.75558 1.84131,-4.44231c0.00488,-1.67789 -0.67786,-3.25481 -1.83167,-4.44231z" fill-opacity="1"></path></g></g></svg>